# xmcd CD database file
#
# Track frame offsets:
#	150
#	13680
#	47505
#	68830
#	93457
#	122675
#	152715
#	172960
#	217715
#	253032
#
# Disc length: 3750 seconds
#
# Revision: 0
# Processed by: cddbd v1.5.1PL0 Copyright (c) Steve Scherf et al.
# Submitted via: CDex 1.51
#
DISCID=790ea40a
DTITLE=Michael Jefry Stevens and Mark Feldman - Haiku
DYEAR=1995
DGENRE=Jazz
TTITLE0=Keen Tyler
TTITLE1=Sunset Park
TTITLE2=Lilliputian
TTITLE3=Ballad of Habit
TTITLE4=In Front of the Myth
TTITLE5=Kashf
TTITLE6=12 Chatham Road
TTITLE7=The Fourth Guy
TTITLE8=Kerney
TTITLE9=Nocturne
EXTD=YEAR: 1995
EXTT0=
EXTT1=
EXTT2=
EXTT3=
EXTT4=
EXTT5=
EXTT6=
EXTT7=
EXTT8=
EXTT9=
PLAYORDER=
